<mxfile host="Electron" modified="2023-05-26T13:05:05.723Z" agent="Mozilla/5.0 (Windows NT 10.0; Win64; x64) AppleWebKit/537.36 (KHTML, like Gecko) draw.io/21.2.8 Chrome/112.0.5615.165 Electron/24.2.0 Safari/537.36" etag="API2YMeQZNnD41svyBkJ" version="21.2.8" type="device">
  <diagram name="Page-1" id="aMq8cFmoLgq2UjbOPxfn">
    <mxGraphModel dx="1418" dy="1861" grid="1" gridSize="10" guides="1" tooltips="1" connect="1" arrows="1" fold="1" page="1" pageScale="1" pageWidth="827" pageHeight="1169" math="0" shadow="0">
      <root>
        <mxCell id="0" />
        <mxCell id="1" parent="0" />
        <mxCell id="zDXKI-8GWqe0bOASiKay-2" value="" style="whiteSpace=wrap;html=1;aspect=fixed;" parent="1" vertex="1">
          <mxGeometry x="270" y="-70" width="800" height="800" as="geometry" />
        </mxCell>
        <mxCell id="s62XysMxZiNXdlOT6VFS-3" value="Организатор" style="shape=umlActor;verticalLabelPosition=bottom;verticalAlign=top;html=1;outlineConnect=0;" parent="1" vertex="1">
          <mxGeometry x="440" y="220" width="30" height="60" as="geometry" />
        </mxCell>
        <mxCell id="s62XysMxZiNXdlOT6VFS-4" value="Просмотреть&lt;br&gt;информацию об участниках" style="ellipse;whiteSpace=wrap;html=1;" parent="1" vertex="1">
          <mxGeometry x="420" y="100" width="100" height="60" as="geometry" />
        </mxCell>
        <mxCell id="s62XysMxZiNXdlOT6VFS-5" value="Удалить участника" style="ellipse;whiteSpace=wrap;html=1;" parent="1" vertex="1">
          <mxGeometry x="420" y="-10" width="100" height="60" as="geometry" />
        </mxCell>
        <mxCell id="s62XysMxZiNXdlOT6VFS-6" value="Опубликовать викторину" style="ellipse;whiteSpace=wrap;html=1;" parent="1" vertex="1">
          <mxGeometry x="690" y="430" width="100" height="60" as="geometry" />
        </mxCell>
        <mxCell id="s62XysMxZiNXdlOT6VFS-7" value="Опубликовать&lt;br&gt;викторину перед олимпиадой" style="ellipse;whiteSpace=wrap;html=1;" parent="1" vertex="1">
          <mxGeometry x="895" y="430" width="100" height="60" as="geometry" />
        </mxCell>
        <mxCell id="s62XysMxZiNXdlOT6VFS-8" value="Активировать викторину" style="ellipse;whiteSpace=wrap;html=1;" parent="1" vertex="1">
          <mxGeometry x="810" y="330" width="100" height="60" as="geometry" />
        </mxCell>
        <mxCell id="s62XysMxZiNXdlOT6VFS-9" value="Просмотреть опубликованные викторины" style="ellipse;whiteSpace=wrap;html=1;" parent="1" vertex="1">
          <mxGeometry x="640" y="330" width="100" height="60" as="geometry" />
        </mxCell>
        <mxCell id="s62XysMxZiNXdlOT6VFS-10" value="Получить результаты" style="ellipse;whiteSpace=wrap;html=1;" parent="1" vertex="1">
          <mxGeometry x="640" y="210" width="100" height="60" as="geometry" />
        </mxCell>
        <mxCell id="s62XysMxZiNXdlOT6VFS-11" value="Экспортировать данные" style="ellipse;whiteSpace=wrap;html=1;" parent="1" vertex="1">
          <mxGeometry x="300" y="210" width="100" height="60" as="geometry" />
        </mxCell>
        <mxCell id="s62XysMxZiNXdlOT6VFS-12" value="Создать олимпиаду" style="ellipse;whiteSpace=wrap;html=1;" parent="1" vertex="1">
          <mxGeometry x="489" y="330" width="100" height="60" as="geometry" />
        </mxCell>
        <mxCell id="s62XysMxZiNXdlOT6VFS-14" value="Посмотреть расписание олимпиады" style="ellipse;whiteSpace=wrap;html=1;" parent="1" vertex="1">
          <mxGeometry x="300" y="330" width="100" height="60" as="geometry" />
        </mxCell>
        <mxCell id="s62XysMxZiNXdlOT6VFS-16" value="Регистрация участника" style="ellipse;whiteSpace=wrap;html=1;" parent="1" vertex="1">
          <mxGeometry x="640" y="100" width="100" height="60" as="geometry" />
        </mxCell>
        <mxCell id="s62XysMxZiNXdlOT6VFS-19" value="" style="endArrow=none;html=1;rounded=0;entryX=0.5;entryY=1;entryDx=0;entryDy=0;" parent="1" target="s62XysMxZiNXdlOT6VFS-4" edge="1">
          <mxGeometry width="50" height="50" relative="1" as="geometry">
            <mxPoint x="470" y="240" as="sourcePoint" />
            <mxPoint x="560" y="140" as="targetPoint" />
          </mxGeometry>
        </mxCell>
        <mxCell id="s62XysMxZiNXdlOT6VFS-22" value="&amp;lt;&amp;lt;extend&amp;gt;&amp;gt;" style="html=1;verticalAlign=bottom;labelBackgroundColor=none;endArrow=open;endFill=0;dashed=1;rounded=0;entryX=0.5;entryY=0;entryDx=0;entryDy=0;exitX=0.5;exitY=1;exitDx=0;exitDy=0;" parent="1" source="s62XysMxZiNXdlOT6VFS-5" target="s62XysMxZiNXdlOT6VFS-4" edge="1">
          <mxGeometry width="160" relative="1" as="geometry">
            <mxPoint x="480" y="369" as="sourcePoint" />
            <mxPoint x="415" y="341" as="targetPoint" />
          </mxGeometry>
        </mxCell>
        <mxCell id="s62XysMxZiNXdlOT6VFS-23" value="&amp;lt;&amp;lt;extend&amp;gt;&amp;gt;" style="html=1;verticalAlign=bottom;labelBackgroundColor=none;endArrow=open;endFill=0;dashed=1;rounded=0;entryX=1;entryY=0.5;entryDx=0;entryDy=0;exitX=0;exitY=0.5;exitDx=0;exitDy=0;" parent="1" source="s62XysMxZiNXdlOT6VFS-7" target="s62XysMxZiNXdlOT6VFS-6" edge="1">
          <mxGeometry width="160" relative="1" as="geometry">
            <mxPoint x="985" y="508" as="sourcePoint" />
            <mxPoint x="855" y="480" as="targetPoint" />
          </mxGeometry>
        </mxCell>
        <mxCell id="s62XysMxZiNXdlOT6VFS-25" value="&amp;lt;&amp;lt;include&amp;gt;&amp;gt;" style="html=1;verticalAlign=bottom;labelBackgroundColor=none;endArrow=open;endFill=0;dashed=1;rounded=0;exitX=1;exitY=0;exitDx=0;exitDy=0;entryX=0;entryY=1;entryDx=0;entryDy=0;" parent="1" source="s62XysMxZiNXdlOT6VFS-6" target="s62XysMxZiNXdlOT6VFS-8" edge="1">
          <mxGeometry width="160" relative="1" as="geometry">
            <mxPoint x="660" y="509" as="sourcePoint" />
            <mxPoint x="750" y="481" as="targetPoint" />
          </mxGeometry>
        </mxCell>
        <mxCell id="s62XysMxZiNXdlOT6VFS-26" value="" style="endArrow=none;html=1;rounded=0;entryX=0;entryY=0.5;entryDx=0;entryDy=0;exitX=1;exitY=0.5;exitDx=0;exitDy=0;" parent="1" source="s62XysMxZiNXdlOT6VFS-4" target="s62XysMxZiNXdlOT6VFS-16" edge="1">
          <mxGeometry width="50" height="50" relative="1" as="geometry">
            <mxPoint x="470" y="260" as="sourcePoint" />
            <mxPoint x="520" y="210" as="targetPoint" />
          </mxGeometry>
        </mxCell>
        <mxCell id="s62XysMxZiNXdlOT6VFS-27" value="&amp;lt;&amp;lt;extend&amp;gt;&amp;gt;" style="html=1;verticalAlign=bottom;labelBackgroundColor=none;endArrow=open;endFill=0;dashed=1;rounded=0;entryX=0;entryY=0;entryDx=0;entryDy=0;exitX=0.5;exitY=1;exitDx=0;exitDy=0;" parent="1" source="s62XysMxZiNXdlOT6VFS-9" target="s62XysMxZiNXdlOT6VFS-6" edge="1">
          <mxGeometry width="160" relative="1" as="geometry">
            <mxPoint x="745" y="480" as="sourcePoint" />
            <mxPoint x="660" y="509" as="targetPoint" />
          </mxGeometry>
        </mxCell>
        <mxCell id="s62XysMxZiNXdlOT6VFS-28" value="Создать викторину" style="ellipse;whiteSpace=wrap;html=1;" parent="1" vertex="1">
          <mxGeometry x="489" y="430" width="100" height="60" as="geometry" />
        </mxCell>
        <mxCell id="s62XysMxZiNXdlOT6VFS-31" value="&amp;lt;&amp;lt;include&amp;gt;&amp;gt;" style="html=1;verticalAlign=bottom;labelBackgroundColor=none;endArrow=open;endFill=0;dashed=1;rounded=0;exitX=1;exitY=0.5;exitDx=0;exitDy=0;entryX=0;entryY=0.5;entryDx=0;entryDy=0;" parent="1" source="s62XysMxZiNXdlOT6VFS-28" target="s62XysMxZiNXdlOT6VFS-6" edge="1">
          <mxGeometry width="160" relative="1" as="geometry">
            <mxPoint x="660" y="551" as="sourcePoint" />
            <mxPoint x="745" y="575" as="targetPoint" />
          </mxGeometry>
        </mxCell>
        <mxCell id="s62XysMxZiNXdlOT6VFS-32" value="&amp;lt;&amp;lt;include&amp;gt;&amp;gt;" style="html=1;verticalAlign=bottom;labelBackgroundColor=none;endArrow=open;endFill=0;dashed=1;rounded=0;exitX=0.5;exitY=1;exitDx=0;exitDy=0;entryX=0.5;entryY=0;entryDx=0;entryDy=0;" parent="1" source="s62XysMxZiNXdlOT6VFS-12" target="s62XysMxZiNXdlOT6VFS-28" edge="1">
          <mxGeometry width="160" relative="1" as="geometry">
            <mxPoint x="515" y="515" as="sourcePoint" />
            <mxPoint x="575" y="530" as="targetPoint" />
          </mxGeometry>
        </mxCell>
        <mxCell id="s62XysMxZiNXdlOT6VFS-33" value="Создать вопросы" style="ellipse;whiteSpace=wrap;html=1;" parent="1" vertex="1">
          <mxGeometry x="489" y="535" width="100" height="60" as="geometry" />
        </mxCell>
        <mxCell id="s62XysMxZiNXdlOT6VFS-34" value="Создать ответы" style="ellipse;whiteSpace=wrap;html=1;" parent="1" vertex="1">
          <mxGeometry x="690" y="535" width="100" height="60" as="geometry" />
        </mxCell>
        <mxCell id="s62XysMxZiNXdlOT6VFS-35" value="&amp;lt;&amp;lt;include&amp;gt;&amp;gt;" style="html=1;verticalAlign=bottom;labelBackgroundColor=none;endArrow=open;endFill=0;dashed=1;rounded=0;exitX=0.5;exitY=1;exitDx=0;exitDy=0;entryX=0.5;entryY=0;entryDx=0;entryDy=0;" parent="1" source="s62XysMxZiNXdlOT6VFS-28" target="s62XysMxZiNXdlOT6VFS-33" edge="1">
          <mxGeometry width="160" relative="1" as="geometry">
            <mxPoint x="525" y="515" as="sourcePoint" />
            <mxPoint x="615" y="530" as="targetPoint" />
          </mxGeometry>
        </mxCell>
        <mxCell id="s62XysMxZiNXdlOT6VFS-36" value="&amp;lt;&amp;lt;include&amp;gt;&amp;gt;" style="html=1;verticalAlign=bottom;labelBackgroundColor=none;endArrow=open;endFill=0;dashed=1;rounded=0;exitX=1;exitY=0.5;exitDx=0;exitDy=0;entryX=0;entryY=0.5;entryDx=0;entryDy=0;" parent="1" source="s62XysMxZiNXdlOT6VFS-33" target="s62XysMxZiNXdlOT6VFS-34" edge="1">
          <mxGeometry width="160" relative="1" as="geometry">
            <mxPoint x="475" y="545" as="sourcePoint" />
            <mxPoint x="465" y="590" as="targetPoint" />
          </mxGeometry>
        </mxCell>
        <mxCell id="s62XysMxZiNXdlOT6VFS-37" value="Отметить верный ответ" style="ellipse;whiteSpace=wrap;html=1;" parent="1" vertex="1">
          <mxGeometry x="895" y="535" width="100" height="60" as="geometry" />
        </mxCell>
        <mxCell id="s62XysMxZiNXdlOT6VFS-38" value="&amp;lt;&amp;lt;extend&amp;gt;&amp;gt;" style="html=1;verticalAlign=bottom;labelBackgroundColor=none;endArrow=open;endFill=0;dashed=1;rounded=0;entryX=1;entryY=0.5;entryDx=0;entryDy=0;exitX=0;exitY=0.5;exitDx=0;exitDy=0;" parent="1" source="s62XysMxZiNXdlOT6VFS-37" target="s62XysMxZiNXdlOT6VFS-34" edge="1">
          <mxGeometry width="160" relative="1" as="geometry">
            <mxPoint x="665" y="440" as="sourcePoint" />
            <mxPoint x="665" y="500" as="targetPoint" />
          </mxGeometry>
        </mxCell>
        <mxCell id="s62XysMxZiNXdlOT6VFS-39" value="&amp;lt;&amp;lt;include&amp;gt;&amp;gt;" style="html=1;verticalAlign=bottom;labelBackgroundColor=none;endArrow=open;endFill=0;dashed=1;rounded=0;exitX=0.5;exitY=0;exitDx=0;exitDy=0;entryX=1;entryY=1;entryDx=0;entryDy=0;" parent="1" source="s62XysMxZiNXdlOT6VFS-7" target="s62XysMxZiNXdlOT6VFS-8" edge="1">
          <mxGeometry width="160" relative="1" as="geometry">
            <mxPoint x="730" y="551" as="sourcePoint" />
            <mxPoint x="792" y="575" as="targetPoint" />
          </mxGeometry>
        </mxCell>
        <mxCell id="7GEw133h-d_fD5GMiZP--1" value="&amp;lt;&amp;lt;extend&amp;gt;&amp;gt;" style="html=1;verticalAlign=bottom;labelBackgroundColor=none;endArrow=open;endFill=0;dashed=1;rounded=0;entryX=0;entryY=0.5;entryDx=0;entryDy=0;exitX=1;exitY=0.5;exitDx=0;exitDy=0;" parent="1" source="s62XysMxZiNXdlOT6VFS-14" target="s62XysMxZiNXdlOT6VFS-12" edge="1">
          <mxGeometry width="160" relative="1" as="geometry">
            <mxPoint x="775" y="660" as="sourcePoint" />
            <mxPoint x="695" y="635" as="targetPoint" />
          </mxGeometry>
        </mxCell>
        <mxCell id="7GEw133h-d_fD5GMiZP--3" value="" style="endArrow=none;html=1;rounded=0;exitX=1;exitY=0.3333333333333333;exitDx=0;exitDy=0;exitPerimeter=0;entryX=0.5;entryY=0;entryDx=0;entryDy=0;" parent="1" source="s62XysMxZiNXdlOT6VFS-3" target="s62XysMxZiNXdlOT6VFS-12" edge="1">
          <mxGeometry width="50" height="50" relative="1" as="geometry">
            <mxPoint x="480" y="250" as="sourcePoint" />
            <mxPoint x="570" y="250" as="targetPoint" />
          </mxGeometry>
        </mxCell>
        <mxCell id="7GEw133h-d_fD5GMiZP--4" value="Отметить тип проверки" style="ellipse;whiteSpace=wrap;html=1;" parent="1" vertex="1">
          <mxGeometry x="300" y="535" width="100" height="60" as="geometry" />
        </mxCell>
        <mxCell id="7GEw133h-d_fD5GMiZP--5" value="&amp;lt;&amp;lt;extend&amp;gt;&amp;gt;" style="html=1;verticalAlign=bottom;labelBackgroundColor=none;endArrow=open;endFill=0;dashed=1;rounded=0;entryX=0;entryY=0.5;entryDx=0;entryDy=0;exitX=1;exitY=0.5;exitDx=0;exitDy=0;" parent="1" source="7GEw133h-d_fD5GMiZP--4" target="s62XysMxZiNXdlOT6VFS-33" edge="1">
          <mxGeometry width="160" relative="1" as="geometry">
            <mxPoint x="905" y="575" as="sourcePoint" />
            <mxPoint x="760" y="575" as="targetPoint" />
          </mxGeometry>
        </mxCell>
        <mxCell id="7GEw133h-d_fD5GMiZP--6" value="" style="endArrow=none;html=1;rounded=0;exitX=0;exitY=0.3333333333333333;exitDx=0;exitDy=0;exitPerimeter=0;entryX=1;entryY=0.5;entryDx=0;entryDy=0;" parent="1" source="s62XysMxZiNXdlOT6VFS-3" target="s62XysMxZiNXdlOT6VFS-11" edge="1">
          <mxGeometry width="50" height="50" relative="1" as="geometry">
            <mxPoint x="480" y="250" as="sourcePoint" />
            <mxPoint x="570" y="250" as="targetPoint" />
          </mxGeometry>
        </mxCell>
        <mxCell id="7GEw133h-d_fD5GMiZP--7" value="" style="endArrow=none;html=1;rounded=0;exitX=1;exitY=0.3333333333333333;exitDx=0;exitDy=0;exitPerimeter=0;entryX=0;entryY=0.5;entryDx=0;entryDy=0;" parent="1" source="s62XysMxZiNXdlOT6VFS-3" target="s62XysMxZiNXdlOT6VFS-10" edge="1">
          <mxGeometry width="50" height="50" relative="1" as="geometry">
            <mxPoint x="550" y="239.57" as="sourcePoint" />
            <mxPoint x="640" y="239.57" as="targetPoint" />
          </mxGeometry>
        </mxCell>
        <mxCell id="7GEw133h-d_fD5GMiZP--8" value="&amp;lt;&amp;lt;include&amp;gt;&amp;gt;" style="html=1;verticalAlign=bottom;labelBackgroundColor=none;endArrow=open;endFill=0;dashed=1;rounded=0;exitX=1;exitY=0.5;exitDx=0;exitDy=0;entryX=0.5;entryY=0;entryDx=0;entryDy=0;" parent="1" source="s62XysMxZiNXdlOT6VFS-10" target="s62XysMxZiNXdlOT6VFS-8" edge="1">
          <mxGeometry width="160" relative="1" as="geometry">
            <mxPoint x="770" y="308" as="sourcePoint" />
            <mxPoint x="820" y="250" as="targetPoint" />
          </mxGeometry>
        </mxCell>
      </root>
    </mxGraphModel>
  </diagram>
</mxfile>
